<svg xmlns="http://www.w3.org/2000/svg" xmlns:xlink="http://www.w3.org/1999/xlink" width="500" zoomAndPan="magnify" viewBox="0 0 375 374.999991" height="500" preserveAspectRatio="xMidYMid meet" version="1.0"><defs><g/></defs><g fill="#00c4cc" fill-opacity="1"><g transform="translate(19.546878, 226.499985)"><g><path d="M 98.558594 29.441406 C 98.398438 29.121094 98.078125 28.800781 98.398438 28.480469 L 97.597656 26.878906 C 97.277344 25.917969 96.636719 24.960938 96.320312 23.839844 C 95.679688 23.359375 95.359375 23.199219 95.679688 22.71875 C 95.679688 22.558594 95.679688 22.398438 95.519531 22.238281 L 94.71875 20 C 94.078125 19.039062 94.078125 18.71875 94.558594 18.078125 C 94.71875 17.28125 94.558594 16.800781 93.757812 15.839844 C 93.117188 15.839844 92.957031 15.519531 93.597656 14.878906 C 94.238281 14.558594 93.917969 13.917969 93.277344 13.761719 C 92.320312 13.121094 91.839844 11.199219 91.839844 8.800781 C 91.839844 7.679688 91.519531 6.398438 90.878906 4.960938 C 90.238281 4 89.917969 2.71875 89.597656 1.121094 C 89.277344 0 89.117188 -2.078125 88.796875 -1.921875 C 88.160156 -2.558594 88 -2.878906 87.839844 -3.679688 C 87.839844 -4 87.839844 -4 88.160156 -4 C 88.480469 -4 88.480469 -4 88.160156 -4.480469 C 88.160156 -4.640625 87.839844 -5.28125 88 -6.238281 C 88 -7.359375 88 -7.679688 87.519531 -8.480469 C 87.039062 -8.800781 86.558594 -9.601562 86.558594 -9.28125 C 85.597656 -10.238281 85.277344 -11.839844 85.4375 -13.28125 C 85.117188 -14.71875 84.796875 -15.519531 84 -15.839844 C 83.679688 -15.839844 83.359375 -17.121094 82.398438 -19.679688 C 81.917969 -22.078125 80.640625 -26.558594 78.878906 -29.441406 L 74.078125 -39.519531 C 72.800781 -41.917969 70.71875 -45.4375 69.117188 -47.679688 C 68.640625 -49.277344 68 -51.199219 68 -51.679688 C 68 -52.640625 66.078125 -54.238281 65.277344 -54.558594 C 65.757812 -55.839844 67.519531 -56.960938 71.199219 -59.839844 L 73.917969 -61.757812 C 75.519531 -63.199219 77.277344 -64.320312 78.71875 -64.957031 C 87.199219 -70.078125 96.636719 -81.597656 99.839844 -91.359375 C 100.320312 -94.398438 100.957031 -98.878906 100.957031 -102.71875 C 100.796875 -106.878906 99.519531 -110.71875 97.757812 -114.398438 C 96.796875 -116 95.679688 -117.597656 94.398438 -118.878906 C 92.957031 -120 91.679688 -121.277344 90.238281 -122.238281 C 89.277344 -124.476562 88.636719 -125.597656 87.199219 -126.878906 C 83.679688 -128.957031 81.4375 -128.957031 74.398438 -130.878906 C 71.519531 -130.878906 68.957031 -130.71875 66.078125 -129.917969 L 64.640625 -129.597656 C 63.199219 -128.636719 60.800781 -127.679688 59.199219 -126.558594 C 56.480469 -124.636719 50.71875 -118.71875 49.121094 -116.316406 C 48.640625 -115.839844 47.359375 -114.078125 45.917969 -112 C 44.480469 -110.71875 43.519531 -108.636719 43.039062 -108 C 42.71875 -107.359375 42.398438 -106.238281 41.4375 -105.4375 L 40.160156 -103.679688 C 39.359375 -102.878906 39.199219 -102.238281 38.878906 -102.078125 L 38.398438 -104.796875 L 38.398438 -106.398438 C 38.238281 -107.039062 38.398438 -107.679688 38.398438 -108.316406 C 37.4375 -109.917969 35.679688 -113.277344 33.121094 -116.316406 C 31.839844 -118.078125 30.558594 -119.519531 29.597656 -120.636719 C 28.800781 -121.4375 28.160156 -121.917969 27.519531 -122.078125 C 26.878906 -122.71875 25.917969 -122.878906 24.960938 -123.039062 C 23.839844 -123.039062 23.199219 -122.878906 22.078125 -122.398438 C 21.917969 -122.238281 21.757812 -122.238281 21.757812 -122.238281 C 21.28125 -122.238281 23.519531 -124.15625 22.078125 -124.15625 C 21.917969 -124.15625 21.757812 -124.15625 21.601562 -124.15625 L 18.238281 -124 C 15.359375 -123.519531 15.519531 -123.359375 14.71875 -123.359375 C 14.398438 -123.359375 14.078125 -123.359375 13.601562 -123.359375 C 12.480469 -123.199219 11.519531 -122.878906 10.878906 -122.238281 C 10.398438 -122.078125 10.238281 -121.917969 9.917969 -121.597656 C 9.761719 -121.277344 9.761719 -120.796875 9.761719 -120.316406 C 9.917969 -119.839844 9.761719 -119.359375 10.238281 -118.558594 C 10.238281 -118.078125 10.71875 -117.277344 11.039062 -116.15625 L 11.199219 -114.878906 C 11.199219 -113.597656 12 -110.558594 12.480469 -108.636719 C 13.441406 -105.4375 10.878906 -103.679688 12.800781 -100.957031 C 14.558594 -99.199219 10.238281 -94.078125 11.039062 -92.636719 C 11.039062 -66.398438 8.480469 -38.71875 1.28125 -13.441406 C 1.121094 -12.960938 1.121094 -12.640625 1.121094 -12.320312 C 0.960938 -10.878906 0.800781 -8.160156 0.160156 -5.917969 C -0.320312 -1.441406 -0.640625 2.71875 -0.480469 5.761719 C -1.121094 8.160156 -1.121094 9.601562 -0.640625 11.199219 C -0.160156 12.320312 0.640625 12.960938 1.441406 13.28125 L 2.878906 14.398438 C 3.039062 14.558594 3.359375 14.71875 3.359375 14.71875 C 3.839844 15.519531 5.441406 15.839844 7.039062 15.839844 C 7.359375 15.839844 7.519531 15.839844 7.679688 15.839844 C 8.480469 15.839844 8.960938 15.679688 9.601562 15.039062 C 11.039062 14.078125 12.480469 12.800781 13.28125 11.679688 C 15.039062 11.679688 17.757812 11.039062 19.359375 10.398438 C 20.960938 9.441406 22.71875 9.28125 24 9.28125 C 24.960938 9.121094 26.078125 8.960938 27.199219 8.160156 C 27.679688 7.679688 28 7.359375 28.160156 7.039062 C 28 6.878906 27.679688 6.558594 27.519531 5.917969 C 26.878906 5.441406 26.398438 4.640625 26.558594 3.519531 C 26.398438 2.078125 28 -1.761719 29.121094 -4.320312 C 29.757812 -5.601562 29.917969 -6.238281 29.917969 -6.238281 C 29.917969 -5.917969 30.878906 -6.878906 31.359375 -8.640625 L 32.480469 -13.601562 C 33.597656 -15.199219 34.878906 -20 36.160156 -25.28125 C 36.800781 -28.960938 37.121094 -32.160156 37.4375 -39.519531 C 37.757812 -45.121094 38.078125 -49.917969 37.917969 -53.757812 C 39.679688 -53.917969 41.4375 -54.078125 41.597656 -54.558594 C 41.757812 -54.558594 41.757812 -54.71875 41.917969 -54.71875 C 42.398438 -54.71875 43.039062 -54.238281 43.839844 -53.917969 C 44.320312 -53.277344 44.800781 -52.640625 44.800781 -52 C 44.800781 -51.839844 44.640625 -50.878906 44.800781 -50.398438 C 44.800781 -49.757812 45.4375 -48.640625 45.277344 -47.679688 C 47.839844 -41.757812 51.839844 -31.519531 54.558594 -25.121094 C 56 -22.238281 57.597656 -18.238281 58.878906 -15.199219 C 59.199219 -14.078125 59.359375 -12.640625 59.679688 -12.640625 C 59.679688 -12.480469 60.160156 -11.359375 60.640625 -10.078125 C 64.160156 3.199219 68.160156 16.160156 72.480469 29.121094 C 76 39.359375 81.277344 48 93.277344 48 C 95.519531 48 97.4375 47.519531 99.199219 45.917969 L 101.917969 40.960938 L 103.039062 36 C 102.558594 36 102.238281 35.679688 101.917969 35.039062 C 101.277344 34.078125 100.636719 32.640625 100.160156 30.878906 C 100 30.078125 99.679688 29.28125 99.359375 28.640625 L 99.359375 29.121094 C 98.878906 29.757812 98.878906 29.757812 98.558594 29.441406 Z M 62.878906 -117.757812 C 65.597656 -119.039062 67.839844 -119.679688 69.597656 -119.679688 C 70.878906 -119.679688 72 -119.199219 72.640625 -118.398438 C 74.238281 -116.316406 73.597656 -109.597656 71.359375 -101.277344 C 69.4375 -93.917969 66.238281 -85.917969 62.878906 -79.679688 C 59.839844 -74.71875 57.917969 -72 55.199219 -69.597656 C 53.597656 -68.640625 53.121094 -68.480469 51.519531 -68.480469 L 49.121094 -68.640625 L 46.558594 -66.398438 L 46.078125 -66.398438 C 45.917969 -66.398438 45.757812 -66.398438 45.757812 -66.398438 C 44.800781 -66.398438 44.160156 -65.757812 44.480469 -65.277344 C 44.480469 -65.117188 43.519531 -65.117188 42.71875 -65.117188 C 41.4375 -65.597656 40 -66.078125 38.558594 -66.71875 C 38.238281 -72.480469 39.039062 -78.238281 40.160156 -83.199219 C 40.480469 -85.4375 40.960938 -87.039062 40.960938 -88.320312 C 41.121094 -88.636719 41.4375 -89.597656 41.757812 -90.078125 C 42.558594 -92.320312 43.039062 -93.4375 44 -94.878906 C 45.917969 -97.917969 47.359375 -101.757812 49.277344 -106.878906 C 50.398438 -108.316406 52.480469 -110.078125 55.519531 -111.679688 C 57.4375 -113.757812 60.160156 -116.636719 60.480469 -116.476562 Z M 98.398438 27.519531 C 98.398438 28 98.398438 28.160156 98.71875 28.160156 L 99.199219 28.480469 Z M 98.398438 27.519531 "/></g></g></g><g fill="#aeada8" fill-opacity="1"><g transform="translate(115.863278, 226.499985)"><g><path d="M 83.519531 -21.441406 C 83.679688 -22.078125 82.71875 -22.398438 83.199219 -24.640625 C 83.039062 -25.28125 83.039062 -25.757812 83.039062 -25.917969 C 83.199219 -26.398438 83.839844 -26.078125 84 -26.71875 C 84 -26.878906 82.71875 -33.441406 81.757812 -36.480469 C 81.4375 -38.078125 80.957031 -39.679688 80 -40.800781 C 78.71875 -42.238281 74.398438 -47.679688 74.078125 -49.277344 C 74.398438 -50.398438 69.597656 -54.398438 68.640625 -56.480469 C 66.398438 -60 54.078125 -67.679688 51.199219 -70.238281 C 43.359375 -73.917969 42.398438 -77.117188 42.398438 -77.4375 C 42.558594 -77.757812 42.71875 -77.757812 42.71875 -77.917969 C 42.878906 -78.558594 40.160156 -80 39.839844 -82.078125 L 39.039062 -82.71875 C 38.71875 -83.199219 34.71875 -84.957031 33.757812 -89.4375 C 32.640625 -92 32.480469 -94.71875 32.800781 -96.796875 C 33.121094 -97.917969 33.441406 -98.878906 34.078125 -99.199219 L 35.039062 -99.839844 C 35.519531 -100.636719 39.679688 -103.519531 40.960938 -104.476562 C 42.558594 -109.117188 47.519531 -114.238281 58.71875 -114.238281 C 60.320312 -114.238281 62.078125 -114.078125 63.839844 -113.917969 C 65.117188 -114.078125 66.078125 -114.078125 67.039062 -114.078125 C 68.800781 -114.078125 73.277344 -113.597656 74.398438 -112.160156 C 74.398438 -112.316406 75.679688 -112.160156 76 -112 C 77.117188 -111.359375 78.71875 -105.4375 77.597656 -99.679688 C 75.839844 -91.519531 70.558594 -87.519531 65.117188 -87.519531 C 64.320312 -87.519531 63.679688 -87.519531 62.878906 -87.679688 C 57.757812 -88.636719 62.878906 -97.277344 58.558594 -98.078125 C 56.960938 -98.398438 55.679688 -99.039062 54.878906 -99.039062 C 54.078125 -99.039062 53.597656 -98.398438 53.121094 -96.160156 C 52 -90.878906 56 -84.160156 63.359375 -82.71875 C 65.277344 -82.238281 66.71875 -82.078125 68 -82.078125 C 69.757812 -82.078125 71.359375 -82.558594 74.238281 -84.160156 L 75.039062 -84.480469 C 76.160156 -85.597656 76.957031 -86.878906 77.917969 -88.320312 C 77.917969 -88.320312 78.078125 -88.160156 78.238281 -88.160156 C 78.878906 -88 79.359375 -88.796875 79.519531 -89.597656 L 79.519531 -90.078125 C 79.839844 -91.199219 81.757812 -92.320312 81.757812 -92.320312 C 81.917969 -92.636719 82.078125 -92.957031 82.078125 -93.277344 C 82.238281 -93.917969 81.597656 -93.4375 81.757812 -94.078125 C 82.078125 -95.519531 82.558594 -94.238281 83.039062 -97.277344 L 84.796875 -103.519531 C 85.597656 -108 84.320312 -113.277344 82.71875 -116.15625 C 81.757812 -120.957031 80.160156 -123.199219 80.160156 -123.359375 C 80.320312 -123.839844 79.839844 -124.476562 79.519531 -124.476562 L 78.878906 -125.757812 C 79.039062 -126.398438 75.679688 -129.757812 75.359375 -130.398438 C 74.878906 -131.519531 70.878906 -133.917969 65.277344 -135.039062 C 63.039062 -135.359375 60.640625 -135.835938 58.398438 -135.835938 L 57.277344 -135.519531 C 57.117188 -135.519531 56.800781 -135.519531 56.640625 -135.519531 C 49.597656 -135.519531 40.640625 -133.757812 34.558594 -130.558594 L 33.757812 -130.238281 C 31.199219 -128.957031 28.800781 -127.359375 26.398438 -125.277344 C 23.359375 -123.359375 20.160156 -120.957031 18.71875 -119.359375 C 16.480469 -116.957031 15.039062 -113.277344 15.039062 -113.597656 C 14.238281 -113.757812 13.441406 -111.359375 13.28125 -110.558594 C 13.121094 -109.757812 13.121094 -109.117188 13.441406 -108.636719 L 13.761719 -108.957031 C 13.917969 -108.796875 13.917969 -108.316406 13.601562 -107.359375 C 13.761719 -106.878906 13.761719 -106.398438 13.761719 -105.917969 C 13.441406 -104.796875 11.839844 -105.917969 11.519531 -104 C 11.359375 -103.679688 11.359375 -103.359375 11.359375 -103.359375 C 11.359375 -103.359375 11.359375 -103.839844 11.039062 -103.839844 C 10.878906 -104 10.71875 -103.679688 10.558594 -103.199219 C 10.078125 -100.796875 11.519531 -95.519531 12.320312 -95.359375 C 12.800781 -95.199219 13.121094 -96.160156 13.28125 -96.476562 C 13.121094 -96 13.917969 -87.359375 14.238281 -85.597656 C 14.078125 -85.117188 14.238281 -84.480469 13.917969 -83.839844 C 14.398438 -80.957031 20.640625 -72.480469 22.238281 -69.917969 L 23.359375 -69.277344 C 25.597656 -67.039062 30.71875 -64.480469 32.320312 -63.519531 C 35.199219 -62.078125 35.199219 -60.800781 37.597656 -59.359375 C 41.4375 -56 42.398438 -54.398438 45.597656 -51.199219 C 49.917969 -48 52 -45.121094 53.277344 -42.558594 C 57.597656 -38.558594 58.71875 -31.839844 57.757812 -27.199219 C 56.800781 -22.398438 53.917969 -16.960938 49.597656 -11.359375 C 48 -8.320312 46.878906 -3.199219 42.71875 -0.960938 C 39.679688 0.640625 36.160156 2.238281 33.121094 2.878906 L 30.878906 3.839844 C 30.078125 4 28.320312 4.480469 27.199219 4.640625 L 24.640625 5.121094 L 23.199219 4.800781 C 22.71875 4.640625 22.078125 5.28125 20.480469 5.601562 L 17.121094 6.558594 C 14.398438 5.761719 10.878906 5.28125 8.480469 3.839844 C 8.320312 3.839844 8 3.839844 7.839844 3.839844 C 7.039062 3.839844 6.558594 3.679688 6.558594 3.679688 C 3.199219 3.039062 0.320312 1.441406 0 -3.039062 C 0.640625 -6.078125 -0.960938 -4.640625 0.480469 -12.320312 C 1.601562 -18.078125 8.800781 -20.160156 9.28125 -22.398438 C 9.28125 -23.199219 12.800781 -24 12.960938 -24.960938 C 13.28125 -26.878906 15.359375 -27.039062 16.960938 -28.160156 C 17.28125 -29.917969 14.878906 -31.359375 12.480469 -31.679688 C 11.679688 -31.839844 10.71875 -32 9.917969 -32 C 7.359375 -32 4.960938 -30.878906 1.28125 -27.679688 C -2.558594 -22.71875 -4.480469 -18.238281 -6.078125 -10.558594 C -8 -0.800781 -6.558594 10.238281 1.28125 16.960938 C 6.398438 21.441406 12.320312 23.519531 15.519531 24.160156 C 22.71875 25.597656 31.679688 25.121094 35.679688 25.441406 C 35.839844 25.441406 36.160156 25.441406 36.320312 25.441406 C 38.558594 25.441406 43.039062 23.839844 46.078125 23.359375 C 47.199219 22.71875 49.121094 22.398438 50.398438 21.917969 C 53.277344 20.160156 54.078125 22.078125 60.480469 17.757812 C 63.519531 15.839844 70.398438 12 72.160156 9.28125 C 75.199219 6.558594 77.917969 3.199219 78.558594 1.921875 C 80.320312 -1.121094 81.4375 -4.160156 82.398438 -9.28125 C 82.558594 -9.761719 82.71875 -10.398438 82.558594 -10.878906 C 82.878906 -12 83.199219 -12.960938 83.359375 -14.078125 L 83.679688 -15.199219 C 82.558594 -16.160156 83.679688 -18.558594 83.359375 -21.28125 Z M 83.519531 -21.441406 "/></g></g></g><g fill="#00c4cc" fill-opacity="1"><g transform="translate(172.212883, 290.999981)"><g><path d="M 191.699219 -56.699219 C 192.601562 -58.5 193.800781 -60.300781 194.699219 -61.5 L 194.699219 -61.800781 C 195.300781 -62.398438 195.300781 -63 195 -63.601562 C 196.5 -67.5 195 -69.300781 192.898438 -69.300781 C 191.398438 -69.300781 189.898438 -68.699219 188.398438 -67.199219 C 180.601562 -51.601562 167.101562 -30 156.300781 -17.101562 L 153.898438 -14.398438 C 150 -11.398438 145.5 -8.398438 144 -8.699219 C 141.601562 -10.5 138.601562 -12.898438 136.199219 -16.199219 C 134.101562 -18 131.699219 -21.898438 130.199219 -26.699219 C 127.800781 -32.699219 125.699219 -39 124.199219 -45 C 123.898438 -46.5 124.199219 -48.300781 124.199219 -49.5 L 118.5 -67.199219 C 118.199219 -69.601562 117.601562 -71.699219 117 -73.800781 L 117 -74.101562 C 117.300781 -75.300781 116.398438 -76.5 115.800781 -77.699219 C 115.5 -77.699219 115.5 -77.699219 115.199219 -77.398438 L 108.300781 -94.199219 L 105.300781 -106.5 C 103.800781 -111.601562 105.898438 -108.601562 104.398438 -113.398438 L 113.398438 -123 C 115.199219 -125.101562 118.800781 -126 120.898438 -128.398438 L 131.101562 -140.398438 C 132.898438 -142.800781 135.300781 -145.5 137.398438 -147.898438 C 139.199219 -150.300781 140.699219 -152.101562 141.898438 -154.199219 L 148.800781 -161.398438 L 154.199219 -169.199219 C 155.101562 -170.101562 155.699219 -171 156.300781 -171.898438 L 158.101562 -174.601562 C 158.699219 -175.5 158.699219 -176.101562 159.300781 -176.699219 C 159.898438 -177.601562 159.898438 -178.199219 159.898438 -179.101562 C 162.300781 -183 165.601562 -187.199219 168.601562 -190.800781 L 170.398438 -193.5 C 171.601562 -194.398438 172.800781 -195.601562 173.398438 -196.800781 C 174.898438 -198.601562 176.398438 -200.398438 177.601562 -202.199219 L 179.398438 -204.898438 C 180.300781 -206.699219 181.5 -208.5 183 -210.300781 C 189.601562 -218.398438 195.898438 -224.699219 195.601562 -234.300781 L 195 -237.898438 C 192.898438 -239.398438 190.800781 -239.699219 189.300781 -240 C 184.5 -239.398438 186.601562 -234 182.699219 -227.398438 L 180.601562 -224.398438 L 172.800781 -215.699219 C 166.800781 -207.898438 160.5 -199.800781 152.101562 -188.398438 L 141.601562 -176.398438 C 139.5 -174 137.398438 -171.601562 135 -169.5 L 126.300781 -160.5 L 120 -149.398438 L 116.101562 -145.199219 L 109.5 -139.800781 C 108.601562 -138.601562 107.101562 -137.699219 105.898438 -136.5 C 104.101562 -134.398438 100.800781 -132.898438 98.398438 -131.101562 C 96.898438 -138 93.898438 -156.601562 92.101562 -164.398438 C 91.199219 -169.5 89.699219 -174.898438 87.898438 -180 C 87 -183.300781 86.101562 -186.601562 84.898438 -189.601562 L 84 -192.898438 C 81.300781 -201.300781 78.898438 -209.101562 75.898438 -215.398438 L 74.398438 -218.101562 C 71.699219 -223.5 65.398438 -231.601562 58.800781 -232.800781 C 57.300781 -233.398438 55.5 -234 53.699219 -234.300781 C 51.898438 -234.898438 49.5 -235.199219 47.398438 -235.199219 C 46.5 -235.5 45.601562 -235.5 44.398438 -235.5 C 43.5 -235.5 42.601562 -235.5 41.398438 -235.199219 C 39.898438 -235.199219 38.699219 -234.898438 37.199219 -234.601562 C 36.300781 -234.601562 35.398438 -234.601562 34.800781 -234.300781 L 31.5 -233.101562 C 30.601562 -232.800781 30.300781 -232.5 30.300781 -231.898438 C 30.300781 -231.300781 30 -231 30 -231.300781 C 29.398438 -231.300781 29.101562 -231 28.800781 -230.398438 C 27.601562 -230.101562 27 -229.199219 27 -228.300781 C 27 -227.699219 27 -227.101562 27.300781 -226.199219 C 27.300781 -224.699219 27.898438 -223.5 28.800781 -222.300781 L 29.101562 -220.5 C 30.898438 -216.898438 33.601562 -213.601562 35.101562 -208.800781 C 35.398438 -207.898438 36 -206.398438 36 -204.898438 C 35.699219 -204.300781 36 -204 36 -203.699219 L 38.398438 -197.699219 C 39.300781 -194.398438 40.800781 -189.300781 42 -183.300781 L 44.101562 -172.199219 L 44.398438 -169.199219 L 47.101562 -159.898438 L 48.601562 -152.101562 C 49.199219 -150.898438 49.199219 -149.699219 49.5 -148.5 L 54.300781 -127.800781 L 57.898438 -115.5 C 58.5 -114 59.101562 -112.199219 59.398438 -110.398438 L 63 -101.398438 C 63 -99.300781 53.699219 -93.601562 47.101562 -88.800781 C 44.398438 -86.699219 42.898438 -83.398438 41.699219 -82.199219 L 34.800781 -74.101562 C 32.398438 -71.398438 29.398438 -69.898438 27 -66.601562 C 24 -63.300781 21 -59.398438 18.300781 -56.101562 C 16.199219 -53.699219 14.398438 -50.699219 12 -48 L -1.199219 -29.398438 C -6 -21.601562 -10.199219 -14.699219 -13.199219 -8.699219 L -15.300781 -3.300781 L -17.699219 1.5 C -17.699219 3.601562 -17.101562 5.398438 -16.5 6.601562 C -14.101562 15.300781 -10.800781 15.601562 -7.199219 15.601562 C -7.199219 16.5 -5.398438 16.800781 -4.800781 16.800781 C -4.199219 16.5 -3.601562 16.5 -3.300781 16.800781 C -1.800781 16.800781 -0.300781 15.898438 0.601562 14.101562 C 0.601562 13.5 0.898438 12.898438 0.898438 12 L 0.898438 11.699219 L 2.398438 9.898438 C 2.398438 9 3.601562 7.199219 4.199219 5.699219 C 4.800781 4.5 5.398438 2.699219 6.300781 1.199219 C 7.5 -1.5 9.300781 -4.5 10.800781 -7.199219 L 13.800781 -12.300781 C 15 -13.800781 16.199219 -15.601562 17.101562 -17.699219 L 30.300781 -36.601562 C 36 -44.398438 42.300781 -52.5 48.300781 -59.398438 L 59.699219 -72 L 66.300781 -78.300781 L 70.199219 -69.300781 L 71.101562 -62.398438 C 71.101562 -61.5 71.699219 -60.601562 71.699219 -60 C 74.699219 -45.300781 80.398438 -26.699219 86.699219 -14.398438 C 87.300781 -12.601562 88.199219 -11.101562 89.101562 -9.300781 L 90.898438 -6 C 95.398438 1.5 99.898438 5.699219 102 7.5 C 108 13.5 114.601562 18.300781 123.601562 18.300781 C 128.699219 18.300781 138 12.898438 143.398438 9.300781 L 145.199219 9.300781 C 149.398438 8.398438 153.898438 2.699219 155.101562 0.300781 C 156.601562 -2.101562 161.398438 -7.199219 163.800781 -11.101562 C 167.101562 -15.300781 169.800781 -19.5 172.800781 -23.699219 L 174.601562 -27 L 174.601562 -27.300781 L 175.5 -29.699219 L 175.5 -29.398438 C 180.898438 -37.800781 185.398438 -45.898438 189.300781 -52.5 Z M 191.699219 -56.699219 "/></g></g></g></svg>